PathFileType	4	(X/Y/Z)	C:/Users/beibeiliu/ov580/test_trc/User2\sequence.4_training_dense_right.trc
DataRate	CameraRate	NumFrames	NumMarkers	Units	OrigDataRate	OrigDataStartFrame	OrigNumFrames
120	120	18	19	mm	120	112	296
Frame#	Time	ThumbCMC			ThumbMCP			ThumbIP			ThumbTip			IndexMCP			IndexPIP			IndexTip			MiddleMCP			MiddlePIP			MiddleTip			RingMCP			RingPIP			RingTip			PinkyMCP			PinkyPIP			PinkyTip			BackHand1			BackHand2			BackHand3	
		X0	Y0	Z0	X1	Y1	Z1	X2	Y2	Z2	X3	Y3	Z3	X4	Y4	Z4	X5	Y5	Z5	X6	Y6	Z6	X7	Y7	Z7	X8	Y8	Z8	X9	Y9	Z9	X10	Y10	Z10	X11	Y11	Z11	X12	Y12	Z12	X13	Y13	Z13	X14	Y14	Z14	X15	Y15	Z15	X16	Y16	Z16	X17	Y17	Z17	X18	Y18	Z18	
111	0.925	76.563	42.7695	50.5352	57.886	15.4725	34.9359	44.8789	-8.57949	12.4391	56.1961	-30.2319	-6.87563	95.3132	46.9668	-27.362	91.7182	44.2338	-56.3101	90.3893	41.6076	-83.0455	103.927	12.512	-29.3973	82.5847	-18.0821	-29.8124	69.4597	-27.19	10.9759	115.254	-8.7715	-16.4583	92.3783	-30.4748	-8.59942	78.497	-30.5232	25.1882	128.116	-15.5494	0.313307	101.351	-32.6935	12.4273	91.0702	-18.8382	38.0246	138.843	37.0659	21.3214	148.021	46.804	55.396	114.186	63.9201	39.2405	
112	0.933333	75.1604	42.671	51.3359	57.993	12.8621	36.3588	43.7628	-12.9927	19.1083	52.8042	-37.5395	1.51109	91.0557	38.6136	-26.0903	91.1568	30.9469	-55.872	90.6316	24.813	-78.2682	95.8821	1.73542	-27.7404	80.1449	-28.0781	-22.6395	63.9699	-30.4818	16.1513	107.847	-16.3425	-13.3528	86.8333	-38.828	-0.515585	74.9679	-34.1803	34.0844	124.493	-25.6305	6.5898	97.0456	-40.9991	22.9413	88.308	-20.0936	46.0707	140.901	29.8051	20.8993	146.673	44.4779	53.3378	113.211	57.3068	35.618	
113	0.941667	72.3321	43.5592	55.3825	50.7004	12.5496	45.4973	38.6614	-17.3107	24.6364	47.1113	-41.5661	12.9378	90.2688	29.7669	-24.1612	84.2991	22.8938	-49.7684	88.0535	10.2304	-78.6016	96.9388	-6.4149	-20.2987	73.757	-37.1337	-10.612	62.4069	-34.9852	22.5273	102.894	-22.8148	-6.85187	85.3546	-46.6816	7.80304	70.0012	-36.5897	41.3416	117.923	-33.6816	12.1409	90.2379	-41.6994	29.1718	84.7936	-24.3851	52.9065	136.093	23.864	22.4186	143.685	42.2145	56.1169	111.865	55.0478	37.1631	
114	0.95	72.1881	40.6437	57.9394	52.4094	11.4107	52.5451	40.0831	-17.5395	38.3485	47.9127	-43.9582	22.6038	83.7883	23.1029	-20.721	79.9131	10.8521	-46.6838	80.5167	-2.66539	-70.5192	91.5023	-13.6985	-15.8964	68.1114	-37.8649	-5.53788	58.0414	-34.7002	32.026	97.6826	-27.6605	-0.845569	78.1941	-49.4656	17.9194	68.6076	-41.2391	47.2728	116.556	-37.3968	19.4228	87.6308	-45.1809	39.3328	82.3792	-24.9451	60.3267	136.613	21.7987	28.2828	142.123	40.7933	51.4979	109.637	53.2142	38.9268	
115	0.958333	72.5479	42.9451	65.9853	48.8865	11.3123	60.3217	34.7486	-18.3705	48.267	45.9296	-44.7088	35.8847	81.0279	17.7625	-13.9864	72.0622	4.36418	-40.7644	65.7332	-10.9707	-65.13	84.1835	-14.5741	-10.139	62.5209	-43.6381	7.03945	53.4332	-31.0959	44.1374	97.7423	-30.7635	8.26458	73.6205	-49.2416	23.5401	65.5174	-39.9692	56.8178	108.96	-38.3148	25.2844	83.0784	-43.7576	45.6891	76.9846	-22.1512	64.4717	132.636	18.9298	31.0574	141.914	38.5208	55.8302	111.768	50.0359	37.1858	
116	0.966667	74.3969	40.378	66.1992	48.623	9.92692	65.3609	31.5761	-20.9039	55.359	40.2588	-45.1313	45.8039	73.2995	14.8747	-10.2914	60.1672	0.483486	-36.316	54.6423	-20.0655	-56.2476	75.5238	-17.1745	-5.39657	57.3895	-44.2494	14.7144	54.0811	-32.7202	51.3447	87.6733	-34.7831	12.8159	69.8289	-51.7666	31.9329	62.7173	-38.1553	62.278	102.963	-39.4168	28.7307	81.9069	-47.5854	49.9989	74.675	-20.8992	70.0503	126.664	15.6317	28.579	141.928	39.828	55.9465	108.224	51.9279	40.277	
117	0.975	73.7192	40.4565	70.3392	46.3325	12.3855	72.4564	34.3981	-19.2746	62.0499	37.2376	-47.1657	50.2338	61.8211	16.2155	-9.04604	48.8417	1.76667	-28.555	39.2467	-18.1793	-47.761	69.5956	-16.6514	-0.678035	49.7049	-40.2244	14.1398	49.6957	-31.0761	55.7358	83.8338	-35.4059	16.7684	64.4755	-49.3702	36.9807	58.658	-32.1568	70.0912	98.1457	-43.0847	33.4658	77.509	-47.6552	54.5397	73.0373	-20.0646	76.4433	122.389	15.3174	29.8031	141.623	33.9934	56.5713	103.989	47.3882	38.9714	
118	0.983333	71.1777	44.4973	75.2512	46.0998	11.8704	72.9854	28.7524	-16.3422	67.8453	33.887	-43.3807	53.7343	57.1894	21.2859	-1.8752	40.8249	8.60548	-23.0973	25.8933	-8.8492	-42.491	64.8841	-11.5547	3.26239	43.4599	-37.78	17.9675	48.393	-31.4254	59.0723	76.4789	-35.5152	18.2777	58.8588	-48.3503	42.8019	54.9937	-30.9994	71.7909	96.0973	-38.338	32.8293	73.3965	-46.4383	60.9103	71.1886	-23.7108	78.2569	122.169	16.0751	31.5247	139.453	33.2005	55.836	103.41	48.3456	39.9991	
119	0.991667	69.6696	43.1209	77.6836	42.7533	14.5588	76.1631	27.3528	-13.4424	67.016	29.4851	-39.6413	54.5959	52.6069	27.771	1.61918	35.7921	14.6108	-21.4159	19.5229	1.94566	-39.5572	58.2693	-9.29898	1.83541	38.2334	-34.0765	19.4351	45.0565	-31.1338	56.9658	71.9129	-26.4783	16.4399	54.4043	-45.1519	40.4424	53.0823	-30.5462	68.4821	93.5281	-37.0957	30.8784	68.2761	-43.7246	56.6208	68.8419	-23.0963	78.8553	117.398	18.3869	34.1702	134.394	35.1339	54.3446	98.9569	50.8533	45.641	
120	1	68.3369	46.0392	79.7541	39.0366	16.8876	73.7874	24.8756	-11.3184	62.7306	25.7492	-35.1105	49.4708	49.3266	31.2559	-2.01498	31.4127	25.3757	-20.2308	17.391	13.3186	-39.1413	54.3319	-1.9755	0.465336	37.7065	-28.6645	13.788	41.4051	-27.2626	55.2828	70.6698	-22.1227	13.0262	53.2445	-41.6557	32.0927	53.5374	-30.6294	65.8928	90.8923	-33.091	26.8802	68.2656	-43.668	48.8459	67.5099	-22.7309	76.1578	113.499	21.1538	30.3911	135.116	39.0306	57.721	100.137	54.1153	45.9613	
121	1.00833	67.8314	46.5838	78.7214	41.2693	20.6729	76.3538	23.5443	-8.58762	56.5959	23.4308	-31.4259	42.8322	51.9635	37.4763	-0.187153	29.571	33.0829	-22.4873	15.7153	23.4455	-44.2034	61.4194	2.98028	-1.70407	37.1318	-23.2564	8.45031	43.3059	-23.3438	52.0104	73.2552	-19.002	7.34818	53.2943	-38.0062	27.6278	51.3008	-25.4647	60.9664	88.8211	-29.9459	21.4797	65.9985	-39.54	41.5781	66.8728	-22.5151	71.132	115.888	23.7568	29.9	135.415	35.5499	56.7908	101.494	52.0786	46.5666	
122	1.01667	66.7957	47.1622	76.9736	39.7987	20.4146	71.2252	24.4203	-5.73305	52.3811	28.0186	-27.1628	33.7186	50.8836	44.2508	-3.45363	33.1068	39.6854	-26.0514	19.9242	33.6334	-43.578	62.4904	10.0212	-5.75587	41.4466	-19.5615	2.19865	41.0753	-20.8684	44.3411	73.9084	-14.7198	1.38297	53.3416	-33.6882	18.6699	53.6902	-26.3823	54.5104	86.8625	-24.333	15.2573	67.715	-36.593	33.5703	70.4973	-20.9623	65.764	118.723	26.1102	26.7135	138.53	37.6939	58.6681	101.48	59.7396	50.1309	
123	1.025	67.4469	46.4412	77.7088	38.5	19.0862	64.8283	26.3954	-4.35097	47.9562	24.1357	-28.7211	27.1619	54.0818	47.1274	-4.78799	38.2116	43.7055	-26.5437	24.634	34.4746	-53.6276	65.0881	10.5476	-9.95097	41.9503	-17.5545	-1.46724	41.1134	-20.6764	36.9045	74.8979	-12.017	-3.90946	55.1614	-31.0396	12.1591	54.5065	-27.1519	46.2056	95.0764	-23.7396	10.8918	69.7785	-37.6444	33.4154	69.1638	-22.1684	60.9316	121.148	27.4237	27.6609	137.644	40.2348	58.0728	101.244	58.2654	50.4374	
124	1.03333	68.3445	42.7967	73.1937	42.0323	19.0346	62.7551	25.8367	-7.18244	41.979	30.3552	-27.9123	22.9763	56.7064	46.3209	-9.70769	43.0865	42.065	-32.027	29.9528	36.0655	-55.5273	64.018	11.3341	-14.3776	47.7772	-18.0372	-8.72525	45.1368	-23.2128	33.8012	80.6842	-12.7648	-4.90239	60.3248	-34.0373	7.81462	54.2196	-26.8844	43.9003	95.7404	-26.847	8.90233	72.2856	-37.9825	30.0221	69.4687	-21.5798	54.8021	119.161	27.8909	27.73	134.526	41.8056	59.5991	99.6073	58.4543	49.2126	
125	1.04167	67.7777	42.6783	71.444	40.3956	15.5496	57.9969	27.4433	-9.07538	39.8267	30.6178	-30.6589	18.2941	61.4832	43.9609	-9.57496	47.6692	40.8774	-33.8843	36.1553	31.8426	-61.9279	72.0031	7.67156	-15.5891	45.4724	-20.6661	-8.56914	47.0938	-24.1379	33.0254	80.4417	-13.046	-6.20277	62.0797	-37.2901	9.27386	54.716	-30.2079	39.9938	97.9333	-23.165	9.4901	74.8922	-38.826	24.0282	69.4335	-24.0401	51.8854	124.135	26.3981	25.2454	135.894	37.8142	57.09	100.066	55.9835	46.0655	
126	1.05	67.7797	39.1544	67.8057	42.1919	13.9767	57.4347	25.0997	-11.5515	38.0541	30.0924	-33.3936	22.0276	62.365	39.1395	-12.0988	52.4187	31.3354	-40.6425	44.2493	22.3346	-64.6434	71.9285	-0.442014	-17.4594	49.2132	-27.7542	-7.79809	47.8496	-29.243	31.5992	82.8291	-22.6915	-5.34825	61.932	-40.3188	8.7505	55.9013	-35.3389	44.9323	99.3604	-31.1336	11.6644	75.0997	-45.0185	30.7617	68.1278	-24.9907	54.9907	121.848	23.2181	25.2845	138.353	33.7658	56.4222	102.049	53.3252	41.7602	
127	1.05833	67.8953	39.2053	64.8505	43.7848	11.9877	54.5936	24.084	-12.2718	42.2914	26.0339	-36.7307	25.0034	66.6219	27.5291	-16.2607	51.7494	24.53	-41.8711	42.8798	14.5394	-66.9134	69.6679	-5.67084	-15.0417	46.5771	-34.2485	-2.72691	42.6103	-29.5574	37.01	78.1836	-26.9339	-1.28252	56.2816	-46.781	17.4992	52.3556	-37.3852	48.6651	92.4312	-42.4362	16.0226	67.6384	-45.657	38.8469	66.0167	-25.3178	62.0471	122.576	11.7805	25.5742	135.97	29.5191	59.1436	105.919	45.0882	43.0225	
128	1.06667	67.8397	41.9169	64.2663	42.212	16.0424	59.0218	21.073	-10.5873	45.2791	18.3938	-38.5253	29.4866	64.9768	21.9505	-17.5768	54.7065	13.2461	-38.401	43.3877	3.69408	-62.6663	68.814	-12.4841	-10.1672	38.1276	-35.9148	1.17104	35.8978	-28.3714	41.8291	71.2252	-34.6537	3.952	48.2321	-47.4176	24.1597	45.0625	-31.1934	56.1223	85.8668	-48.4795	24.6614	60.8357	-47.081	42.5494	60.7837	-23.5172	61.9892	120.184	2.30497	26.5987	138.812	20.315	55.0619	107.921	39.9148	40.6711	
